<?xml version="1.0" encoding="UTF-8" standalone="no"?>
<!DOCTYPE svg PUBLIC "-//W3C//DTD SVG 1.1//EN" "http://www.w3.org/Graphics/SVG/1.1/DTD/svg11.dtd">
<svg width="100%" height="100%" viewBox="0 0 1080 1080" version="1.1" xmlns="http://www.w3.org/2000/svg" xmlns:xlink="http://www.w3.org/1999/xlink" xml:space="preserve" xmlns:serif="http://www.serif.com/" style="fill-rule:evenodd;clip-rule:evenodd;stroke-linecap:round;stroke-linejoin:round;stroke-miterlimit:1.5;">
    <g transform="matrix(1.61258,0,0,1.51666,543.448,520.579)">
        <g transform="matrix(0.620124,0,0,1.23277,-271.767,-657.142)">
            <path d="M236.064,374.462L236.064,727.838C236.064,737.692 221.106,745.692 202.682,745.692C184.258,745.692 169.301,737.692 169.301,727.838L169.301,374.462C169.301,364.608 184.258,356.608 202.682,356.608C221.106,356.608 236.064,364.608 236.064,374.462Z" style="fill:rgb(0,48,167);fill-opacity:0.55;stroke:white;stroke-width:0.67px;"/>
        </g>
        <g transform="matrix(0.620124,0,0,0.863566,-339.13,-460.036)">
            <path d="M236.064,382.096L236.064,720.204C236.064,734.271 221.106,745.692 202.682,745.692C184.258,745.692 169.301,734.271 169.301,720.204L169.301,382.096C169.301,368.029 184.258,356.608 202.682,356.608C221.106,356.608 236.064,368.029 236.064,382.096Z" style="fill:rgb(0,48,167);fill-opacity:0.55;stroke:white;stroke-width:0.86px;"/>
        </g>
        <g transform="matrix(0.620124,0,0,0.863566,-199.458,-460.036)">
            <path d="M236.064,382.096L236.064,720.204C236.064,734.271 221.106,745.692 202.682,745.692C184.258,745.692 169.301,734.271 169.301,720.204L169.301,382.096C169.301,368.029 184.258,356.608 202.682,356.608C221.106,356.608 236.064,368.029 236.064,382.096Z" style="fill:rgb(0,48,167);fill-opacity:0.55;stroke:white;stroke-width:0.86px;"/>
        </g>
        <g transform="matrix(0.620124,0,0,0.397511,-127.827,-204.931)">
            <path d="M236.064,411.978L236.064,690.322C236.064,720.881 221.106,745.692 202.682,745.692C184.258,745.692 169.301,720.881 169.301,690.322L169.301,411.978C169.301,381.419 184.258,356.608 202.682,356.608C221.106,356.608 236.064,381.419 236.064,411.978Z" style="fill:rgb(0,48,167);fill-opacity:0.55;stroke:white;stroke-width:1.21px;"/>
        </g>
        <g transform="matrix(0.620124,0,0,0.397511,160.203,-206.283)">
            <path d="M236.064,411.978L236.064,690.322C236.064,720.881 221.106,745.692 202.682,745.692C184.258,745.692 169.301,720.881 169.301,690.322L169.301,411.978C169.301,381.419 184.258,356.608 202.682,356.608C221.106,356.608 236.064,381.419 236.064,411.978Z" style="fill:rgb(0,48,167);fill-opacity:0.55;stroke:white;stroke-width:1.21px;"/>
        </g>
        <g transform="matrix(0.620124,0,0,0.397511,-407.413,-196.788)">
            <path d="M236.064,411.978L236.064,690.322C236.064,720.881 221.106,745.692 202.682,745.692C184.258,745.692 169.301,720.881 169.301,690.322L169.301,411.978C169.301,381.419 184.258,356.608 202.682,356.608C221.106,356.608 236.064,381.419 236.064,411.978Z" style="fill:rgb(0,48,167);fill-opacity:0.55;stroke:rgb(230,230,230);stroke-width:1.21px;"/>
        </g>
        <g transform="matrix(0.620124,0,0,0.863566,-55.3013,-460.036)">
            <path d="M236.064,382.096L236.064,720.204C236.064,734.271 221.106,745.692 202.682,745.692C184.258,745.692 169.301,734.271 169.301,720.204L169.301,382.096C169.301,368.029 184.258,356.608 202.682,356.608C221.106,356.608 236.064,368.029 236.064,382.096Z" style="fill:rgb(0,48,167);fill-opacity:0.55;stroke:white;stroke-width:0.86px;"/>
        </g>
        <g transform="matrix(0.620124,0,0,0.87537,87.1523,-464.245)">
            <path d="M236.064,381.752L236.064,720.548C236.064,734.425 221.106,745.692 202.682,745.692C184.258,745.692 169.301,734.425 169.301,720.548L169.301,381.752C169.301,367.875 184.258,356.608 202.682,356.608C221.106,356.608 236.064,367.875 236.064,381.752Z" style="fill:rgb(0,48,167);fill-opacity:0.55;stroke:white;stroke-width:0.85px;"/>
        </g>
        <g transform="matrix(0.620124,0,0,1.23277,17.295,-657.926)">
            <path d="M236.064,374.462L236.064,727.838C236.064,737.692 221.106,745.692 202.682,745.692C184.258,745.692 169.301,737.692 169.301,727.838L169.301,374.462C169.301,364.608 184.258,356.608 202.682,356.608C221.106,356.608 236.064,364.608 236.064,374.462Z" style="fill:rgb(0,48,167);fill-opacity:0.55;stroke:white;stroke-width:0.67px;"/>
        </g>
    </g>
    <g transform="matrix(4.73521,0,0,5.06838,-66.1074,-94.3516)">
        <g>
            <g>
                <path d="M239.24,131.4C217.24,178.2 197.84,200 178.04,200C152.94,200 137.31,166.68 120.76,131.4C107.7,103.56 92.9,72 78,72C61.6,72 41.69,109.21 31.28,131.4C29.936,134.129 27.146,135.865 24.104,135.865C19.715,135.865 16.104,132.253 16.104,127.865C16.104,126.74 16.341,125.627 16.8,124.6C38.71,77.8 58.16,56 78,56C103.1,56 118.73,89.32 135.28,124.6C148.3,152.44 163.1,184 178,184C194.4,184 214.31,146.79 224.72,124.6C226.064,121.871 228.854,120.135 231.896,120.135C236.285,120.135 239.896,123.747 239.896,128.135C239.896,129.26 239.659,130.373 239.2,131.4L239.24,131.4Z" style="fill:rgb(0,48,167);fill-rule:nonzero;stroke:white;stroke-width:0.2px;stroke-linecap:butt;stroke-miterlimit:2;"/>
            </g>
        </g>
    </g>
</svg>
