<?xml version="1.0" encoding="UTF-8" standalone="no"?>
<!DOCTYPE svg PUBLIC "-//W3C//DTD SVG 1.1//EN" "http://www.w3.org/Graphics/SVG/1.1/DTD/svg11.dtd">
<svg width="100%" height="100%" viewBox="0 0 1882 1048" version="1.1" xmlns="http://www.w3.org/2000/svg" xmlns:xlink="http://www.w3.org/1999/xlink" xml:space="preserve" xmlns:serif="http://www.serif.com/" style="fill-rule:evenodd;clip-rule:evenodd;stroke-linejoin:round;stroke-miterlimit:2;">
    <g transform="matrix(1,0,0,1,-2784.21,-1645.12)">
        <g transform="matrix(1,0,0,1,8.61635,559.194)">
            <rect x="2775.59" y="1085.92" width="1881.15" height="1047.35" style="fill-opacity:0.13;"/>
        </g>
        <g transform="matrix(0.953991,0,0,1.72323,3309.99,1087.53)">
            <path d="M236.064,375.089L236.064,727.211C236.064,737.411 221.106,745.692 202.682,745.692C184.258,745.692 169.301,737.411 169.301,727.211L169.301,375.089C169.301,364.889 184.258,356.608 202.682,356.608C221.106,356.608 236.064,364.889 236.064,375.089Z" style="fill:rgb(43,90,255);"/>
        </g>
        <g transform="matrix(0.953991,0,0,1.20713,3206.36,1363.05)">
            <path d="M236.064,382.99L236.064,719.31C236.064,733.871 221.106,745.692 202.682,745.692C184.258,745.692 169.301,733.871 169.301,719.31L169.301,382.99C169.301,368.429 184.258,356.608 202.682,356.608C221.106,356.608 236.064,368.429 236.064,382.99Z" style="fill:rgb(0,89,213);"/>
        </g>
        <g transform="matrix(0.953991,0,0,1.20713,3421.23,1363.05)">
            <path d="M236.064,382.99L236.064,719.31C236.064,733.871 221.106,745.692 202.682,745.692C184.258,745.692 169.301,733.871 169.301,719.31L169.301,382.99C169.301,368.429 184.258,356.608 202.682,356.608C221.106,356.608 236.064,368.429 236.064,382.99Z" style="fill:rgb(64,137,255);fill-opacity:0.76;"/>
        </g>
        <g transform="matrix(0.953991,0,0,0.555659,3531.42,1719.65)">
            <path d="M236.064,413.92L236.064,688.38C236.064,720.011 221.106,745.692 202.682,745.692C184.258,745.692 169.301,720.011 169.301,688.38L169.301,413.92C169.301,382.289 184.258,356.608 202.682,356.608C221.106,356.608 236.064,382.289 236.064,413.92Z" style="fill:rgb(0,69,220);"/>
        </g>
        <g transform="matrix(0.953991,0,0,0.555659,3974.52,1717.76)">
            <path d="M236.064,413.92L236.064,688.38C236.064,720.011 221.106,745.692 202.682,745.692C184.258,745.692 169.301,720.011 169.301,688.38L169.301,413.92C169.301,382.289 184.258,356.608 202.682,356.608C221.106,356.608 236.064,382.289 236.064,413.92Z" style="fill:rgb(0,202,255);"/>
        </g>
        <g transform="matrix(0.953991,0,0,0.555659,3101.31,1731.03)">
            <path d="M236.064,413.92L236.064,688.38C236.064,720.011 221.106,745.692 202.682,745.692C184.258,745.692 169.301,720.011 169.301,688.38L169.301,413.92C169.301,382.289 184.258,356.608 202.682,356.608C221.106,356.608 236.064,382.289 236.064,413.92Z" style="fill:rgb(0,28,174);"/>
        </g>
        <g transform="matrix(0.953991,0,0,1.20713,3643,1363.05)">
            <path d="M236.064,382.99L236.064,719.31C236.064,733.871 221.106,745.692 202.682,745.692C184.258,745.692 169.301,733.871 169.301,719.31L169.301,382.99C169.301,368.429 184.258,356.608 202.682,356.608C221.106,356.608 236.064,368.429 236.064,382.99Z" style="fill:rgb(0,102,238);fill-opacity:0.75;"/>
        </g>
        <g transform="matrix(0.953991,0,0,1.22363,3862.14,1357.17)">
            <path d="M236.064,382.634L236.064,719.666C236.064,734.03 221.106,745.692 202.682,745.692C184.258,745.692 169.301,734.03 169.301,719.666L169.301,382.634C169.301,368.27 184.258,356.608 202.682,356.608C221.106,356.608 236.064,368.27 236.064,382.634Z" style="fill:rgb(0,122,246);"/>
        </g>
        <g transform="matrix(0.953991,0,0,1.72323,3754.68,1086.43)">
            <path d="M236.064,375.089L236.064,727.211C236.064,737.411 221.106,745.692 202.682,745.692C184.258,745.692 169.301,737.411 169.301,727.211L169.301,375.089C169.301,364.889 184.258,356.608 202.682,356.608C221.106,356.608 236.064,364.889 236.064,375.089Z" style="fill:rgb(0,131,221);"/>
        </g>
        <g transform="matrix(4.51735,0,0,4.67133,3146.56,1444.78)">
            <g>
                <path d="M239.24,131.4C217.24,178.2 197.84,200 178.04,200C152.94,200 137.31,166.68 120.76,131.4C107.7,103.56 92.9,72 78,72C61.6,72 41.69,109.21 31.28,131.4C29.936,134.129 27.146,135.865 24.104,135.865C19.715,135.865 16.104,132.253 16.104,127.865C16.104,126.74 16.341,125.627 16.8,124.6C38.71,77.8 58.16,56 78,56C103.1,56 118.73,89.32 135.28,124.6C148.3,152.44 163.1,184 178,184C194.4,184 214.31,146.79 224.72,124.6C226.064,121.871 228.854,120.135 231.896,120.135C236.285,120.135 239.896,123.747 239.896,128.135C239.896,129.26 239.659,130.373 239.2,131.4L239.24,131.4Z" style="fill:rgb(0,84,205);fill-opacity:0.95;fill-rule:nonzero;stroke:white;stroke-opacity:0.75;stroke-width:13.6px;"/>
            </g>
        </g>
        <g transform="matrix(1,0,0,1,-157.729,86.9442)">
            <g transform="matrix(200,0,0,200,4643.52,2523.26)">
            </g>
            <text x="3130.12px" y="2523.26px" style="font-family:'BMDoHyeon-OTF', 'BM Dohyeon', sans-serif;font-size:200px;fill:rgb(232,66,0);">S_TIDE toolbox</text>
        </g>
    </g>
</svg>
