<?xml version="1.0" encoding="UTF-8" standalone="no"?>
<!DOCTYPE svg PUBLIC "-//W3C//DTD SVG 1.1//EN" "http://www.w3.org/Graphics/SVG/1.1/DTD/svg11.dtd">
<svg width="100%" height="100%" viewBox="0 0 1080 1080" version="1.1" xmlns="http://www.w3.org/2000/svg" xmlns:xlink="http://www.w3.org/1999/xlink" xml:space="preserve" xmlns:serif="http://www.serif.com/" style="fill-rule:evenodd;clip-rule:evenodd;stroke-linejoin:round;stroke-miterlimit:2;">
    <g transform="matrix(38.1507,0,0,35.8814,48.1832,87.9432)">
        <g>
            <g>
                <path d="M18.813,2.031C18.362,2.128 18.044,2.539 18.063,3L18.063,22C18.055,22.051 18.051,22.102 18.051,22.154C18.051,22.675 18.479,23.104 19.001,23.104C19.522,23.104 19.95,22.675 19.95,22.154C19.95,22.102 19.946,22.051 19.938,22L19.938,2.977C19.938,2.456 19.509,2.027 18.988,2.027C18.961,2.027 18.933,2.029 18.906,2.031C18.875,2.029 18.844,2.029 18.813,2.031M6.813,3.031C6.362,3.128 6.044,3.539 6.063,4L6.063,21C6.055,21.051 6.05,21.102 6.05,21.154C6.05,21.675 6.479,22.104 7,22.104C7.522,22.104 7.95,21.675 7.95,21.154C7.95,21.102 7.946,21.051 7.938,21L7.938,3.977C7.938,3.456 7.509,3.027 6.988,3.027C6.961,3.027 6.933,3.029 6.906,3.031C6.875,3.029 6.844,3.029 6.813,3.031M15.813,6.031C15.362,6.128 15.044,6.539 15.063,7L15.063,18C15.054,18.052 15.05,18.104 15.05,18.157C15.05,18.678 15.479,19.107 16,19.107C16.521,19.107 16.95,18.678 16.95,18.157C16.95,18.104 16.946,18.052 16.937,18L16.937,6.978C16.937,6.456 16.508,6.028 15.987,6.028C15.96,6.028 15.934,6.029 15.907,6.031C15.875,6.029 15.844,6.029 15.812,6.031L15.813,6.031ZM3.813,7.031C3.362,7.128 3.044,7.539 3.063,8L3.063,17C3.054,17.052 3.05,17.104 3.05,17.157C3.05,17.678 3.479,18.107 4,18.107C4.521,18.107 4.95,17.678 4.95,17.157C4.95,17.104 4.946,17.052 4.937,17L4.937,7.978C4.937,7.456 4.508,7.028 3.987,7.028C3.96,7.028 3.934,7.029 3.907,7.031C3.875,7.029 3.844,7.029 3.812,7.031L3.813,7.031ZM9.813,8.031C9.362,8.128 9.044,8.539 9.063,9L9.063,16C9.054,16.052 9.05,16.104 9.05,16.157C9.05,16.678 9.479,17.107 10,17.107C10.521,17.107 10.95,16.678 10.95,16.157C10.95,16.104 10.946,16.052 10.937,16L10.937,8.978C10.937,8.456 10.508,8.028 9.987,8.028C9.96,8.028 9.934,8.029 9.907,8.031C9.875,8.029 9.844,8.029 9.812,8.031L9.813,8.031ZM21.813,8.031C21.362,8.128 21.044,8.539 21.063,9L21.063,16C21.055,16.051 21.051,16.102 21.051,16.154C21.051,16.675 21.479,17.104 22.001,17.104C22.522,17.104 22.95,16.675 22.95,16.154C22.95,16.102 22.946,16.051 22.938,16L22.938,8.977C22.938,8.456 22.509,8.027 21.988,8.027C21.961,8.027 21.933,8.029 21.906,8.031C21.875,8.029 21.844,8.029 21.813,8.031M0.813,10.031C0.362,10.128 0.044,10.539 0.063,11L0.063,14C0.055,14.051 0.05,14.102 0.05,14.154C0.05,14.675 0.479,15.104 1,15.104C1.522,15.104 1.95,14.675 1.95,14.154C1.95,14.102 1.946,14.051 1.938,14L1.938,10.977C1.938,10.456 1.509,10.027 0.988,10.027C0.961,10.027 0.933,10.029 0.906,10.031C0.875,10.029 0.843,10.029 0.812,10.031L0.813,10.031ZM12.813,10.031C12.362,10.128 12.044,10.539 12.063,11L12.063,14C12.054,14.052 12.05,14.104 12.05,14.157C12.05,14.678 12.479,15.107 13,15.107C13.521,15.107 13.95,14.678 13.95,14.157C13.95,14.104 13.946,14.052 13.937,14L13.937,10.978C13.937,10.456 13.508,10.028 12.987,10.028C12.96,10.028 12.934,10.029 12.907,10.031C12.875,10.029 12.844,10.029 12.812,10.031L12.813,10.031ZM24.813,10.031C24.362,10.128 24.044,10.539 24.063,11L24.063,14C24.055,14.051 24.051,14.102 24.051,14.154C24.051,14.675 24.479,15.104 25.001,15.104C25.522,15.104 25.95,14.675 25.95,14.154C25.95,14.102 25.946,14.051 25.938,14L25.938,10.977C25.938,10.456 25.509,10.027 24.988,10.027C24.961,10.027 24.933,10.029 24.906,10.031C24.875,10.029 24.844,10.029 24.813,10.031" style="fill:rgb(0,38,152);fill-opacity:0.63;fill-rule:nonzero;"/>
            </g>
        </g>
    </g>
    <g transform="matrix(4.73521,0,0,5.06838,-66.1074,-94.3516)">
        <g>
            <g>
                <path d="M239.24,131.4C217.24,178.2 197.84,200 178.04,200C152.94,200 137.31,166.68 120.76,131.4C107.7,103.56 92.9,72 78,72C61.6,72 41.69,109.21 31.28,131.4C29.936,134.129 27.146,135.865 24.104,135.865C19.715,135.865 16.104,132.253 16.104,127.865C16.104,126.74 16.341,125.627 16.8,124.6C38.71,77.8 58.16,56 78,56C103.1,56 118.73,89.32 135.28,124.6C148.3,152.44 163.1,184 178,184C194.4,184 214.31,146.79 224.72,124.6C226.064,121.871 228.854,120.135 231.896,120.135C236.285,120.135 239.896,123.747 239.896,128.135C239.896,129.26 239.659,130.373 239.2,131.4L239.24,131.4Z" style="fill:rgb(0,48,167);fill-rule:nonzero;"/>
            </g>
        </g>
    </g>
</svg>
